<svg width="25" height="26" viewBox="0 0 25 26" fill="none" xmlns="http://www.w3.org/2000/svg">
<g id="link" clip-path="url(#clip0_1091_1645)">
<path id="Vector" d="M15.9479 9.55232C18.8652 12.4727 18.8252 17.1548 15.9655 20.0303C15.9601 20.0362 15.9537 20.0426 15.9479 20.0484L12.6666 23.3297C9.77258 26.2237 5.06414 26.2233 2.17053 23.3297C-0.723511 20.4361 -0.723511 15.7271 2.17053 12.8336L3.98235 11.0218C4.46282 10.5413 5.29026 10.8606 5.31506 11.5396C5.3467 12.405 5.50188 13.2743 5.78821 14.1139C5.88518 14.3982 5.81589 14.7126 5.60349 14.925L4.96448 15.564C3.59602 16.9325 3.5531 19.1607 4.90808 20.5426C6.27644 21.938 8.52556 21.9463 9.90442 20.5675L13.1857 17.2867C14.5622 15.9102 14.5564 13.6853 13.1857 12.3145C13.005 12.1342 12.8229 11.994 12.6807 11.8961C12.5801 11.827 12.4971 11.7354 12.4382 11.6285C12.3793 11.5217 12.3462 11.4025 12.3415 11.2806C12.3222 10.7646 12.505 10.2329 12.9127 9.82522L13.9407 8.79714C14.2103 8.52756 14.6332 8.49446 14.9458 8.71262C15.3038 8.9626 15.6391 9.24358 15.9479 9.55232ZM22.8295 2.67039C19.9359 -0.223267 15.2274 -0.223657 12.3334 2.67039L9.05212 5.95164C9.04626 5.9575 9.03992 5.96384 9.03455 5.9697C6.17488 8.84529 6.13479 13.5274 9.05212 16.4477C9.36086 16.7565 9.69615 17.0374 10.0541 17.2874C10.3667 17.5055 10.7897 17.4724 11.0592 17.2029L12.0872 16.1748C12.4949 15.7671 12.6778 15.2354 12.6584 14.7194C12.6537 14.5975 12.6206 14.4783 12.5618 14.3715C12.5029 14.2646 12.4198 14.173 12.3192 14.1039C12.177 14.006 11.995 13.8658 11.8143 13.6855C10.4435 12.3147 10.4378 10.0898 11.8143 8.71331L15.0955 5.43254C16.4744 4.05369 18.7235 4.06199 20.0919 5.45745C21.4468 6.83928 21.404 9.06751 20.0355 10.436L19.3965 11.075C19.1841 11.2874 19.1148 11.6018 19.2117 11.8861C19.4981 12.7257 19.6532 13.595 19.6849 14.4604C19.7097 15.1394 20.5371 15.4587 21.0176 14.9782L22.8294 13.1664C25.7235 10.2729 25.7235 5.56394 22.8295 2.67039Z" fill="#64FFDA"/>
</g>
<defs>
<clipPath id="clip0_1091_1645">
<rect width="25" height="25" fill="white" transform="translate(0 0.5)"/>
</clipPath>
</defs>
</svg>
