<svg width="83" height="119" viewBox="0 0 83 119" fill="none" xmlns="http://www.w3.org/2000/svg">
<g filter="url(#filter0_d_1091_1496)">
<path d="M56.2326 81.6046C56.6047 81.6046 56.9767 81.6822 57.3488 81.8372C57.7209 81.9612 58.0775 82.1938 58.4186 82.5349L64.6512 89.093C61.9225 92.6589 58.4961 95.3566 54.3721 97.186C50.2791 98.9845 45.4264 99.8837 39.814 99.8837C34.6667 99.8837 30.0465 99.0155 25.9535 97.2791C21.8915 95.5116 18.4341 93.093 15.5814 90.0232C12.7597 86.9225 10.5891 83.2636 9.06977 79.0465C7.55039 74.7984 6.7907 70.1938 6.7907 65.2325C6.7907 60.1783 7.6124 55.5426 9.25581 51.3256C10.8992 47.0775 13.2093 43.4186 16.186 40.3488C19.1628 37.2791 22.7287 34.8915 26.8837 33.186C31.0388 31.4806 35.6124 30.6279 40.6047 30.6279C43.1473 30.6279 45.5349 30.8605 47.7674 31.3256C50.031 31.7597 52.1395 32.3798 54.093 33.186C56.0465 33.9612 57.845 34.907 59.4884 36.0232C61.1318 37.1395 62.5891 38.3488 63.8605 39.6512L58.5581 46.7674C58.2171 47.2015 57.814 47.6046 57.3488 47.9767C56.8837 48.3178 56.2326 48.4884 55.3953 48.4884C54.8372 48.4884 54.3101 48.3643 53.814 48.1163C53.3178 47.8682 52.7907 47.5736 52.2326 47.2325C51.6744 46.8605 51.0543 46.4729 50.3721 46.0698C49.7209 45.6356 48.9302 45.2481 48 44.907C47.1008 44.5349 46.031 44.2248 44.7907 43.9767C43.5814 43.7287 42.155 43.6046 40.5116 43.6046C37.907 43.6046 35.5194 44.0853 33.3488 45.0465C31.2093 46.0077 29.3488 47.4186 27.7674 49.2791C26.2171 51.1085 25.0078 53.3721 24.1395 56.0698C23.3023 58.7364 22.8837 61.7907 22.8837 65.2325C22.8837 68.7054 23.3488 71.7907 24.2791 74.4884C25.2403 77.186 26.5271 79.4651 28.1395 81.3256C29.7829 83.155 31.6899 84.5504 33.8605 85.5116C36.031 86.4729 38.3566 86.9535 40.8372 86.9535C42.2636 86.9535 43.5659 86.8915 44.7442 86.7674C45.9225 86.6124 47.0233 86.3798 48.0465 86.0698C49.0698 85.7287 50.031 85.2946 50.9302 84.7674C51.8295 84.2093 52.7442 83.5116 53.6744 82.6744C54.0465 82.3643 54.4496 82.1163 54.8837 81.9302C55.3178 81.7132 55.7674 81.6046 56.2326 81.6046Z" fill="#4C4C4C"/>
</g>
<path d="M60.3219 76.7637C60.7088 76.7637 61.0958 76.8443 61.4828 77.0056C61.8698 77.1346 62.2406 77.3764 62.5954 77.7312L69.0772 84.5516C66.2394 88.2602 62.676 91.0657 58.387 92.9684C54.1302 94.8388 49.0834 95.774 43.2465 95.774C37.8933 95.774 33.0884 94.871 28.8316 93.0651C24.6071 91.227 21.0115 88.7116 18.0447 85.5191C15.1101 82.2943 12.8527 78.489 11.2726 74.1033C9.6924 69.6853 8.90233 64.8964 8.90233 59.7367C8.90233 54.4803 9.7569 49.6592 11.466 45.2735C13.1752 40.8555 15.5777 37.0502 18.6735 33.8577C21.7693 30.6651 25.4778 28.182 29.7991 26.4084C34.1203 24.6347 38.8769 23.7479 44.0688 23.7479C46.7132 23.7479 49.1963 23.9898 51.5181 24.4735C53.8723 24.925 56.0651 25.5699 58.0967 26.4084C60.1284 27.2146 61.9988 28.1981 63.7079 29.3591C65.4171 30.52 66.9327 31.7777 68.2549 33.1321L62.7405 40.533C62.3857 40.9845 61.9665 41.4037 61.4828 41.7907C60.9991 42.1454 60.3219 42.3228 59.4512 42.3228C58.8707 42.3228 58.3225 42.1938 57.8065 41.9358C57.2905 41.6778 56.7423 41.3715 56.1619 41.0167C55.5814 40.6298 54.9364 40.2267 54.227 39.8074C53.5498 39.356 52.7274 38.9529 51.76 38.5981C50.8248 38.2112 49.7123 37.8887 48.4223 37.6307C47.1647 37.3727 45.6812 37.2437 43.9721 37.2437C41.2633 37.2437 38.7802 37.7436 36.5228 38.7433C34.2977 39.7429 32.3628 41.2102 30.7181 43.1451C29.1057 45.0478 27.8481 47.4019 26.9451 50.2074C26.0744 52.9808 25.6391 56.1572 25.6391 59.7367C25.6391 63.3485 26.1228 66.5572 27.0902 69.3628C28.0899 72.1684 29.4282 74.5386 31.1051 76.4735C32.8143 78.3761 34.7975 79.8273 37.0549 80.827C39.3122 81.8267 41.7309 82.3265 44.3107 82.3265C45.7941 82.3265 47.1485 82.262 48.374 82.133C49.5994 81.9718 50.7442 81.7299 51.8084 81.4074C52.8726 81.0527 53.8722 80.6012 54.8074 80.053C55.7426 79.4726 56.694 78.747 57.6614 77.8763C58.0484 77.5538 58.4676 77.2958 58.9191 77.1023C59.3705 76.8766 59.8381 76.7637 60.3219 76.7637Z" fill="#64FFDA"/>
<defs>
<filter id="filter0_d_1091_1496" x="0.790527" y="28.6279" width="77.8608" height="89.2557" filterUnits="userSpaceOnUse" color-interpolation-filters="sRGB">
<feFlood flood-opacity="0" result="BackgroundImageFix"/>
<feColorMatrix in="SourceAlpha" type="matrix" values="0 0 0 0 0 0 0 0 0 0 0 0 0 0 0 0 0 0 127 0" result="hardAlpha"/>
<feOffset dx="4" dy="8"/>
<feGaussianBlur stdDeviation="5"/>
<feComposite in2="hardAlpha" operator="out"/>
<feColorMatrix type="matrix" values="0 0 0 0 0 0 0 0 0 0 0 0 0 0 0 0 0 0 1 0"/>
<feBlend mode="normal" in2="BackgroundImageFix" result="effect1_dropShadow_1091_1496"/>
<feBlend mode="normal" in="SourceGraphic" in2="effect1_dropShadow_1091_1496" result="shape"/>
</filter>
</defs>
</svg>
